<svg width="157" height="40" viewBox="0 0 157 40" fill="none" xmlns="http://www.w3.org/2000/svg">
<path d="M53.5585 33.1643C52.3102 33.1709 51.0706 32.9566 49.897 32.5313C48.0961 31.8768 46.5534 30.6613 45.4967 29.0641C44.3325 27.2987 43.7427 25.0887 43.7558 22.4932C43.7558 21.7068 43.9159 17.6526 46.7223 14.9235C48.4259 13.2676 50.6973 12.4616 53.4752 12.5273C57.0578 12.6127 59.805 14.4131 61.2082 17.5935C61.8392 19.0538 62.1746 20.6245 62.1948 22.215L62.1729 23.9541H47.3603C47.6826 26.6175 48.9652 28.4267 51.1183 29.224C53.8918 30.249 57.163 29.2853 58.4807 27.7411L61.1643 30.0256C59.4629 32.0188 56.5118 33.1643 53.5585 33.1643ZM47.5642 20.4277H58.4434C58.3279 19.912 58.1604 19.4093 57.9435 18.9273C57.0797 17.0415 55.591 16.0997 53.3897 16.0471C51.5765 16.0033 50.193 16.4611 49.1801 17.4467C48.2899 18.3075 47.8164 19.4464 47.5642 20.4277Z" fill="#2EC4B6"/>
<path d="M21.4756 33.2761C15.8474 33.2761 11.2673 28.4903 11.2673 22.6094C11.2673 16.7284 15.8474 11.9426 21.4756 11.9426C23.1468 11.9543 24.789 12.3808 26.2544 13.1837C27.7197 13.9866 28.9624 15.1407 29.8707 16.5422L26.9459 18.4784C26.3564 17.5604 25.548 16.8029 24.5933 16.2739C23.6385 15.7448 22.5673 15.4607 21.4756 15.4471C17.7812 15.4471 14.7753 18.6602 14.7753 22.6094C14.7753 26.5585 17.7812 29.7716 21.4756 29.7716C23.7975 29.7716 25.922 28.5122 27.1586 26.403L30.1864 28.1749C28.314 31.3684 25.0581 33.2761 21.4756 33.2761Z" fill="#2EC4B6"/>
<path d="M112.079 12.5186V33.114H108.571V15.953H106.926V12.5186H112.079Z" fill="#2EC4B6"/>
<path d="M112.096 6.65723H108.588V10.0193H112.096V6.65723Z" fill="#2EC4B6"/>
<path d="M156.646 19.7312C156.598 16.1917 154.269 13.5677 150.491 12.7945C146.714 12.0214 141.706 13.2326 140.325 16.299L143.526 17.7337C143.982 16.7196 146.964 15.6354 149.779 16.218C151.947 16.656 153.068 17.8476 153.087 19.7225V20.1342C152.116 20.0773 150.829 20.0225 149.448 20.0138C145.354 19.9897 142.651 20.3971 141.165 21.2535C138.566 22.7582 137.38 25.3756 138.069 28.0894C138.44 29.5054 139.265 30.7614 140.417 31.6662C141.677 32.654 143.225 33.2046 144.826 33.2345C144.999 33.2345 145.172 33.2345 145.343 33.2345C148.051 33.242 150.721 32.6053 153.133 31.3771V33.1008H156.641L156.646 19.7312ZM144.931 29.7365C142.958 29.6796 141.781 28.4399 141.476 27.2352C141.303 26.5518 141.257 25.2639 142.93 24.2936C143.245 24.1118 144.616 23.5248 149.137 23.5248H149.408C150.823 23.5248 152.153 23.5949 153.105 23.6519L153.12 27.3119C150.731 28.9968 147.853 29.8489 144.931 29.7365Z" fill="#2EC4B6"/>
<path d="M95.7292 16.08H100.787V12.5558H95.7292V7.81158H92.2081V12.5558H89.5902V16.08H92.2103V28.05C92.1905 28.5406 92.2103 30.6127 93.9029 31.9925C94.8062 32.7372 95.9682 33.1118 97.3758 33.1118C98.3402 33.0964 99.2984 32.955 100.226 32.6913L99.3096 29.2963C97.8121 29.6993 96.6611 29.6993 96.148 29.2963C95.7424 28.9721 95.7095 28.315 95.7095 28.2011V16.08H95.7292Z" fill="#2EC4B6"/>
<path d="M83.6661 15.0133C82.7891 13.4407 81.0943 12.6412 78.6453 12.6412C77.1728 12.6325 75.7161 12.944 74.3762 13.5541C73.0363 14.1642 71.8454 15.0582 70.886 16.1742V12.5186H67.378V33.1074H70.886V27.4696C70.886 19.1289 74.8939 16.1567 78.6453 16.1567C79.7415 16.1567 80.3993 16.3516 80.6054 16.7349C80.8816 17.2255 80.8816 18.2265 80.8816 19.1924V33.1249H84.3897V19.1815C84.3875 17.7665 84.3875 16.299 83.6661 15.0133Z" fill="#2EC4B6"/>
<path d="M132.335 12.5186L126.516 28.6567L120.695 12.5186H116.966L124.322 33.114H128.709L136.065 12.5186H132.335Z" fill="#2EC4B6"/>
<path d="M34.0277 12.5186V15.953H35.7137V33.114H39.0266V12.5186H34.0277Z" fill="#2EC4B6"/>
<path d="M0 0.747864V39.7353H24.4114L26.0689 36.4257H3.31288V4.05741H35.7138V8.28689H39.0266V0.747864H0Z" fill="#2EC4B6"/>
</svg>
