<svg width="57" height="60" viewBox="0 0 57 60" fill="none" xmlns="http://www.w3.org/2000/svg">
<path d="M26.9922 53.9843H8.99739C8.20197 53.9843 7.43913 53.6684 6.87669 53.1059C6.31424 52.5435 5.99826 51.7806 5.99826 50.9852V8.99739C5.99826 8.20197 6.31424 7.43913 6.87669 6.87669C7.43913 6.31424 8.20197 5.99826 8.99739 5.99826H23.993V14.9957C23.993 17.3819 24.941 19.6704 26.6283 21.3578C28.3157 23.0451 30.6042 23.993 32.9904 23.993H41.9878V38.9887C41.9878 39.7841 42.3038 40.547 42.8662 41.1094C43.4287 41.6718 44.1915 41.9878 44.987 41.9878C45.7824 41.9878 46.5452 41.6718 47.1077 41.1094C47.6701 40.547 47.9861 39.7841 47.9861 38.9887V20.9939C47.9861 20.9939 47.9861 20.9939 47.9861 20.814C47.9548 20.5384 47.8945 20.267 47.8061 20.0042V19.7343C47.6619 19.4259 47.4696 19.1424 47.2363 18.8945L29.2415 0.899739C28.9936 0.666455 28.7101 0.474105 28.4018 0.329904C28.3025 0.312538 28.2011 0.312538 28.1019 0.329904C27.8102 0.173959 27.4968 0.0627478 27.1721 0H8.99739C6.61114 0 4.32261 0.947937 2.63528 2.63528C0.947937 4.32261 0 6.61114 0 8.99739V50.9852C0 53.3715 0.947937 55.66 2.63528 57.3473C4.32261 59.0347 6.61114 59.9826 8.99739 59.9826H26.9922C27.7876 59.9826 28.5504 59.6666 29.1129 59.1042C29.6753 58.5417 29.9913 57.7789 29.9913 56.9835C29.9913 56.1881 29.6753 55.4252 29.1129 54.8628C28.5504 54.3003 27.7876 53.9843 26.9922 53.9843ZM29.9913 10.227L37.7591 17.9948H32.9904C32.195 17.9948 31.4322 17.6788 30.8697 17.1164C30.3073 16.5539 29.9913 15.7911 29.9913 14.9957V10.227ZM14.9957 35.9896H32.9904C33.7859 35.9896 34.5487 35.6736 35.1111 35.1111C35.6736 34.5487 35.9896 33.7859 35.9896 32.9904C35.9896 32.195 35.6736 31.4322 35.1111 30.8697C34.5487 30.3073 33.7859 29.9913 32.9904 29.9913H14.9957C14.2002 29.9913 13.4374 30.3073 12.8749 30.8697C12.3125 31.4322 11.9965 32.195 11.9965 32.9904C11.9965 33.7859 12.3125 34.5487 12.8749 35.1111C13.4374 35.6736 14.2002 35.9896 14.9957 35.9896ZM26.9922 41.9878H14.9957C14.2002 41.9878 13.4374 42.3038 12.8749 42.8662C12.3125 43.4287 11.9965 44.1915 11.9965 44.987C11.9965 45.7824 12.3125 46.5452 12.8749 47.1077C13.4374 47.6701 14.2002 47.9861 14.9957 47.9861H26.9922C27.7876 47.9861 28.5504 47.6701 29.1129 47.1077C29.6753 46.5452 29.9913 45.7824 29.9913 44.987C29.9913 44.1915 29.6753 43.4287 29.1129 42.8662C28.5504 42.3038 27.7876 41.9878 26.9922 41.9878ZM14.9957 23.993H17.9948C18.7902 23.993 19.553 23.6771 20.1155 23.1146C20.6779 22.5522 20.9939 21.7893 20.9939 20.9939C20.9939 20.1985 20.6779 19.4357 20.1155 18.8732C19.553 18.3108 18.7902 17.9948 17.9948 17.9948H14.9957C14.2002 17.9948 13.4374 18.3108 12.8749 18.8732C12.3125 19.4357 11.9965 20.1985 11.9965 20.9939C11.9965 21.7893 12.3125 22.5522 12.8749 23.1146C13.4374 23.6771 14.2002 23.993 14.9957 23.993ZM56.1137 42.8576C55.8349 42.5765 55.5032 42.3534 55.1377 42.2011C54.7723 42.0488 54.3803 41.9704 53.9843 41.9704C53.5884 41.9704 53.1964 42.0488 52.831 42.2011C52.4655 42.3534 52.1338 42.5765 51.855 42.8576L41.9878 52.7547L38.1189 48.8558C37.8393 48.5762 37.5073 48.3544 37.142 48.203C36.7766 48.0517 36.385 47.9738 35.9896 47.9738C35.5941 47.9738 35.2025 48.0517 34.8372 48.203C34.4718 48.3544 34.1398 48.5762 33.8602 48.8558C33.5805 49.1355 33.3587 49.4674 33.2074 49.8328C33.0561 50.1982 32.9782 50.5898 32.9782 50.9852C32.9782 51.3807 33.0561 51.7723 33.2074 52.1376C33.3587 52.503 33.5805 52.835 33.8602 53.1146L39.8584 59.1129C40.1373 59.394 40.469 59.6171 40.8344 59.7693C41.1999 59.9216 41.5919 60 41.9878 60C42.3837 60 42.7757 59.9216 43.1412 59.7693C43.5067 59.6171 43.8384 59.394 44.1172 59.1129L56.1137 47.1163C56.3948 46.8375 56.618 46.5058 56.7702 46.1404C56.9225 45.7749 57.0009 45.3829 57.0009 44.987C57.0009 44.591 56.9225 44.199 56.7702 43.8336C56.618 43.4681 56.3948 43.1364 56.1137 42.8576Z" fill="#6B83F2"/>
</svg>
