<svg width="45" height="45" viewBox="0 0 45 45" fill="none" xmlns="http://www.w3.org/2000/svg">
<path d="M34.7876 34.0246C33.0425 34.0246 31.4014 33.3452 30.1676 32.1118L23.4964 25.4408C23.0282 24.9711 22.2117 24.9726 21.7436 25.4408L15.0481 32.1362C13.8141 33.3694 12.1729 34.0489 10.4279 34.0489H9.11328L17.5622 42.498C20.201 45.1366 24.4792 45.1366 27.118 42.498L35.5913 34.0246H34.7876Z" fill="#32BCAD"/>
<path d="M10.4281 10.4277C12.1732 10.4277 13.8144 11.1074 15.0482 12.3408L21.7436 19.0373C22.2258 19.5195 23.0132 19.5216 23.4967 19.0367L30.1676 12.3651C31.4017 11.1317 33.0428 10.4522 34.7879 10.4522H35.5914L27.1182 1.97903C24.4795 -0.659737 20.2012 -0.659737 17.5625 1.97903L9.11377 10.4277H10.4281Z" fill="#32BCAD"/>
<path d="M42.5996 17.4607L37.4791 12.3403C37.3664 12.3855 37.2444 12.4137 37.1156 12.4137H34.7876C33.5839 12.4137 32.4058 12.9018 31.5554 13.7528L24.8842 20.4239C24.2602 21.0482 23.4399 21.3607 22.6203 21.3607C21.8001 21.3607 20.9804 21.0482 20.3562 20.4246L13.6601 13.7285C12.8096 12.8775 11.6316 12.3894 10.4279 12.3894H7.56527C7.44331 12.3894 7.3291 12.3606 7.22136 12.32L2.08064 17.4607C-0.55813 20.0993 -0.55813 24.3775 2.08064 27.0165L7.22115 32.157C7.32889 32.1164 7.44331 32.0875 7.56527 32.0875H10.4279C11.6316 32.0875 12.8096 31.5995 13.6601 30.7485L20.3556 24.053C21.5658 22.8439 23.6753 22.8433 24.8842 24.0537L31.5554 30.724C32.4058 31.5752 33.5839 32.0633 34.7876 32.0633H37.1156C37.2446 32.0633 37.3664 32.0913 37.4793 32.1365L42.5996 27.0165C45.2383 24.3775 45.2383 20.0993 42.5996 17.4607Z" fill="#32BCAD"/>
</svg>
