<svg width="35" height="34" viewBox="0 0 35 34" fill="none" xmlns="http://www.w3.org/2000/svg">
<g filter="url(#filter0_d)">
<path d="M21.4018 6.91785H13.6522C12.4146 6.91785 11.4089 7.92353 11.4089 9.16113V16.9095C11.4089 18.1471 12.4146 19.1542 13.6522 19.1542H21.4019C22.6381 19.1542 23.6452 18.1471 23.6452 16.9095V9.16113C23.6452 7.92347 22.6381 6.91785 21.4018 6.91785ZM17.5263 17.0637C15.3057 17.0637 13.498 15.256 13.498 13.0354C13.498 10.8147 15.3057 9.0071 17.5263 9.0071C19.7484 9.0071 21.5546 10.8147 21.5546 13.0354C21.5546 15.256 19.747 17.0637 17.5263 17.0637ZM21.6848 9.84004C21.1586 9.84004 20.7314 9.41307 20.7314 8.88688C20.7314 8.36194 21.1586 7.93356 21.6848 7.93356C22.2095 7.93356 22.6381 8.36194 22.6381 8.88688C22.6381 9.41307 22.2095 9.84004 21.6848 9.84004Z" fill="white"/>
<path d="M17.5263 10.7101C16.2448 10.7101 15.2009 11.7525 15.2009 13.0354C15.2009 14.3183 16.2448 15.3621 17.5263 15.3621C18.8092 15.3621 19.853 14.3183 19.853 13.0354C19.853 11.7539 18.8092 10.7101 17.5263 10.7101Z" fill="white"/>
<path d="M17.5264 0C10.3467 0 4.52637 5.82036 4.52637 13C4.52637 20.1796 10.3467 26 17.5264 26C24.706 26 30.5264 20.1796 30.5264 13C30.5264 5.82041 24.706 0 17.5264 0ZM25.3468 16.9095C25.3468 19.0863 23.5773 20.8557 21.4019 20.8557H13.6523C11.4769 20.8557 9.70604 19.0863 9.70604 16.9095V9.1611C9.70604 6.98589 11.4769 5.21503 13.6523 5.21503H21.4019C23.5773 5.21503 25.3468 6.98589 25.3468 9.1611V16.9095Z" fill="white"/>
</g>
<defs>
<filter id="filter0_d" x="0.526367" y="0" width="34" height="34" filterUnits="userSpaceOnUse" color-interpolation-filters="sRGB">
<feFlood flood-opacity="0" result="BackgroundImageFix"/>
<feColorMatrix in="SourceAlpha" type="matrix" values="0 0 0 0 0 0 0 0 0 0 0 0 0 0 0 0 0 0 127 0" result="hardAlpha"/>
<feOffset dy="4"/>
<feGaussianBlur stdDeviation="2"/>
<feComposite in2="hardAlpha" operator="out"/>
<feColorMatrix type="matrix" values="0 0 0 0 0 0 0 0 0 0 0 0 0 0 0 0 0 0 0.25 0"/>
<feBlend mode="normal" in2="BackgroundImageFix" result="effect1_dropShadow"/>
<feBlend mode="normal" in="SourceGraphic" in2="effect1_dropShadow" result="shape"/>
</filter>
</defs>
</svg>
