<svg width="34" height="34" viewBox="0 0 34 34" fill="none" xmlns="http://www.w3.org/2000/svg">
<g filter="url(#filter0_d)">
<path d="M17 0C9.81994 0 4 5.81994 4 13C4 20.1801 9.81994 26 17 26C24.1793 26 30 20.1793 30 13C30 5.82075 24.1801 0 17 0ZM17.0065 19.5033C15.8018 19.5027 14.6152 19.2108 13.5477 18.6526L9.49494 20.4969L10.6292 15.9583C9.88968 14.7658 9.49692 13.3908 9.49494 11.9876C9.49494 7.84712 12.8538 4.48581 17.0073 4.48581C21.1454 4.48581 24.5051 7.84712 24.5051 11.9876C24.5042 16.1419 21.1454 19.5033 17.0065 19.5033Z" fill="white"/>
<path d="M17.0064 5.98895C13.689 5.98895 10.9963 8.66939 10.9963 11.9876C10.9947 13.4301 11.513 14.8248 12.4564 15.9161L11.6342 18.001L13.4631 16.8383C14.4873 17.599 15.7306 18.0069 17.0064 18.001C20.323 18.001 23.0018 15.3067 23.0018 11.9885C23.003 11.2006 22.8488 10.4203 22.5479 9.69209C22.2471 8.96394 21.8056 8.30227 21.2487 7.74498C20.6918 7.1877 20.0304 6.74574 19.3025 6.44441C18.5745 6.14309 17.7943 5.98831 17.0064 5.98895ZM20.8057 14.4966C20.7488 14.794 20.0403 15.4326 19.487 15.5602C18.2967 15.8291 16.6099 14.8793 15.5179 13.8735C14.4259 12.8814 13.3355 11.2783 13.4915 10.0726C13.5622 9.51927 14.1432 8.75389 14.4267 8.65477C14.5543 8.62633 14.7379 8.62633 14.9085 8.62633C15.1068 8.64014 15.2774 8.65477 15.3343 8.76771L15.9721 10.4268C16.0143 10.5544 15.9152 10.6958 15.7877 10.8526C15.604 11.0655 15.5756 11.0793 15.405 11.3068C15.3205 11.4197 15.3765 11.5619 15.405 11.618C15.5894 12.0575 16.0143 12.554 16.397 12.9082C16.7943 13.2633 17.3176 13.646 17.7718 13.8011C17.8002 13.8011 17.97 13.8718 18.0976 13.8434C18.2105 13.8296 18.2812 13.7443 18.3803 13.6167C18.564 13.39 18.6355 13.3047 18.7915 13.0918C18.919 12.9358 19.0458 12.879 19.175 12.9496L20.6204 13.6167C20.7342 13.6736 20.7764 13.815 20.7902 14.014C20.8195 14.1855 20.8341 14.3699 20.8057 14.4966Z" fill="white"/>
</g>
<defs>
<filter id="filter0_d" x="0" y="0" width="34" height="34" filterUnits="userSpaceOnUse" color-interpolation-filters="sRGB">
<feFlood flood-opacity="0" result="BackgroundImageFix"/>
<feColorMatrix in="SourceAlpha" type="matrix" values="0 0 0 0 0 0 0 0 0 0 0 0 0 0 0 0 0 0 127 0" result="hardAlpha"/>
<feOffset dy="4"/>
<feGaussianBlur stdDeviation="2"/>
<feComposite in2="hardAlpha" operator="out"/>
<feColorMatrix type="matrix" values="0 0 0 0 0 0 0 0 0 0 0 0 0 0 0 0 0 0 0.25 0"/>
<feBlend mode="normal" in2="BackgroundImageFix" result="effect1_dropShadow"/>
<feBlend mode="normal" in="SourceGraphic" in2="effect1_dropShadow" result="shape"/>
</filter>
</defs>
</svg>
