<svg width="225" height="56" viewBox="0 0 225 56" fill="none" xmlns="http://www.w3.org/2000/svg">
<path d="M76.9294 46.5618C75.1363 46.5712 73.3558 46.2634 71.6702 45.6526C69.0833 44.7125 66.8675 42.9665 65.3497 40.6723C63.6774 38.1366 62.8303 34.9622 62.8492 31.2341C62.8492 30.1047 63.0791 24.2813 67.1101 20.3613C69.557 17.9829 72.8196 16.8251 76.8097 16.9195C81.9556 17.0422 85.9015 19.6283 87.9171 24.1964C88.8235 26.2939 89.3051 28.5501 89.3342 30.8346L89.3027 33.3326H68.0265C68.4895 37.1582 70.3318 39.7568 73.4243 40.902C77.4081 42.3744 82.1067 40.9901 83.9994 38.7721L87.8541 42.0535C85.4103 44.9164 81.1714 46.5618 76.9294 46.5618ZM68.3194 28.2674H83.9459C83.7799 27.5267 83.5393 26.8047 83.2279 26.1123C81.9871 23.4036 79.8487 22.0508 76.6869 21.9753C74.0825 21.9123 72.0953 22.5699 70.6404 23.9856C69.3618 25.222 68.6816 26.8579 68.3194 28.2674Z" fill="white"/>
<path d="M30.8467 46.7223C22.7626 46.7223 16.1839 39.8481 16.1839 31.4009C16.1839 22.9537 22.7626 16.0796 30.8467 16.0796C33.2472 16.0965 35.6059 16.7091 37.7108 17.8623C39.8156 19.0155 41.6005 20.6732 42.9051 22.6863L38.7041 25.4675C37.8573 24.1489 36.6962 23.0608 35.3248 22.3009C33.9535 21.5409 32.4148 21.1329 30.8467 21.1133C25.5403 21.1133 21.2227 25.7286 21.2227 31.4009C21.2227 37.0733 25.5403 41.6886 30.8467 41.6886C34.1818 41.6886 37.2334 39.8796 39.0095 36.8499L43.3586 39.3951C40.6692 43.9821 35.9926 46.7223 30.8467 46.7223Z" fill="white"/>
<path d="M160.986 16.907V46.4895H155.947V21.84H153.585V16.907H160.986Z" fill="white"/>
<path d="M161.011 8.48804H155.972V13.3173H161.011V8.48804Z" fill="white"/>
<path d="M225 27.2669C224.931 22.1829 221.586 18.4139 216.16 17.3033C210.734 16.1928 203.541 17.9325 201.557 22.337L206.155 24.3977C206.81 22.9411 211.093 21.3838 215.137 22.2206C218.251 22.8498 219.86 24.5613 219.889 27.2543V27.8458C218.494 27.764 216.645 27.6853 214.661 27.6728C208.781 27.6382 204.898 28.2233 202.763 29.4534C199.031 31.6148 197.328 35.3743 198.317 39.2723C198.85 41.3062 200.035 43.1102 201.689 44.4098C203.499 45.8287 205.722 46.6195 208.022 46.6624C208.271 46.6624 208.52 46.6624 208.766 46.6624C212.655 46.6733 216.49 45.7588 219.955 43.9946V46.4705H224.994L225 27.2669ZM208.174 41.6382C205.339 41.5564 203.648 39.7757 203.21 38.0453C202.962 37.0638 202.896 35.2139 205.298 33.8202C205.752 33.5591 207.72 32.7159 214.214 32.7159H214.604C216.636 32.7159 218.547 32.8166 219.914 32.8984L219.936 38.1555C216.505 40.5756 212.371 41.7996 208.174 41.6382Z" fill="white"/>
<path d="M137.502 22.0225H144.767V16.9605H137.502V10.1461H132.444V16.9605H128.684V22.0225H132.447V39.2158C132.419 39.9205 132.447 42.8967 134.878 44.8787C136.176 45.9484 137.845 46.4863 139.867 46.4863C141.252 46.4643 142.628 46.2612 143.961 45.8823L142.644 41.0059C140.493 41.5848 138.84 41.5848 138.103 41.0059C137.521 40.5403 137.473 39.5965 137.473 39.4329V22.0225H137.502Z" fill="white"/>
<path d="M120.175 20.4904C118.915 18.2315 116.481 17.0832 112.963 17.0832C110.848 17.0707 108.756 17.5181 106.831 18.3944C104.906 19.2707 103.196 20.5549 101.818 22.1578V16.907H96.7791V46.48H101.818V38.382C101.818 26.4018 107.575 22.1326 112.963 22.1326C114.538 22.1326 115.482 22.4126 115.778 22.9632C116.175 23.6679 116.175 25.1056 116.175 26.493V46.5052H121.214V26.4773C121.211 24.445 121.211 22.3371 120.175 20.4904Z" fill="white"/>
<path d="M190.081 16.907L181.723 40.0872L173.362 16.907H168.005L178.571 46.4895H184.872L195.438 16.907H190.081Z" fill="white"/>
<path d="M48.876 16.907V21.84H51.2978V46.4895H56.0563V16.907H48.876Z" fill="white"/>
<path d="M0 0V56H35.0635L37.4444 51.2463H4.75849V4.75371H51.2978V10.8288H56.0563V0H0Z" fill="white"/>
</svg>
