<svg width="122" height="63" viewBox="0 0 122 63" fill="none" xmlns="http://www.w3.org/2000/svg">
<path d="M60.9107 38.6829C59.6353 37.6888 58.0644 37.1489 56.4473 37.1489C54.8302 37.1489 53.2594 37.6888 51.9839 38.6829C50.2696 40.1583 49.203 42.2478 49.0138 44.5017C48.8246 46.7555 49.5278 48.9935 50.9722 50.7341L51.2102 51.002L58.7088 58.5303C58.9854 58.8092 59.3145 59.0305 59.6771 59.1816C60.0397 59.3326 60.4287 59.4104 60.8215 59.4104C61.2143 59.4104 61.6032 59.3326 61.9658 59.1816C62.3284 59.0305 62.6575 58.8092 62.9341 58.5303L70.4327 51.002L70.6707 50.7341C72.1365 49.0159 72.8703 46.7915 72.7145 44.5384C72.5587 42.2853 71.5259 40.1831 69.8376 38.6829C68.5621 37.6888 66.9913 37.1489 65.3741 37.1489C63.757 37.1489 62.1862 37.6888 60.9107 38.6829ZM66.2073 46.9849L60.9107 52.341L55.6439 47.0444C55.2049 46.5307 54.9789 45.8687 55.0121 45.1938C55.0453 44.5189 55.3352 43.8823 55.8224 43.4141C56.8044 42.6405 57.9946 43.7712 58.6195 44.5449C58.8987 44.8818 59.2488 45.1531 59.6449 45.3393C60.0409 45.5254 60.4731 45.622 60.9107 45.622C61.3483 45.622 61.7806 45.5254 62.1766 45.3393C62.5726 45.1531 62.9227 44.8818 63.2019 44.5449C63.8268 43.7712 65.0171 42.6405 65.999 43.4141C66.4738 43.8756 66.7585 44.4981 66.7971 45.159C66.8356 45.8199 66.6252 46.4714 66.2073 46.9849Z" fill="#6B83F2"/>
<path d="M107.836 36.5405C109.424 35.1661 110.697 33.4663 111.57 31.5564C112.443 29.6464 112.895 27.5711 112.895 25.4712C112.895 21.5253 111.327 17.7411 108.537 14.9509C105.747 12.1607 101.963 10.5932 98.0166 10.5932C94.0707 10.5932 90.2864 12.1607 87.4962 14.9509C84.706 17.7411 83.1385 21.5253 83.1385 25.4712C83.1385 27.5711 83.5903 29.6464 84.4631 31.5564C85.3359 33.4663 86.6094 35.1661 88.1971 36.5405C86.4456 37.3291 84.7969 38.3283 83.2873 39.5161C82.2185 36.5094 80.5562 33.7482 78.399 31.3968C76.2418 29.0454 73.6339 27.1517 70.7303 25.8283C72.3029 24.4671 73.5674 22.7865 74.4397 20.8984C75.3119 19.0102 75.7718 16.9579 75.7888 14.878C75.7888 10.9321 74.2213 7.14789 71.4311 4.35771C68.6409 1.56754 64.8566 0 60.9107 0C56.9648 0 53.1805 1.56754 50.3904 4.35771C47.6002 7.14789 46.0327 10.9321 46.0327 14.878C46.0327 16.978 46.4844 19.0533 47.3572 20.9632C48.23 22.8731 49.5035 24.573 51.0912 25.9473C48.1876 27.2708 45.5797 29.1645 43.4225 31.5159C41.2653 33.8673 39.603 36.6284 38.5342 39.6351C37.0246 38.4474 35.3759 37.4481 33.6244 36.6595C35.2121 35.2852 36.4856 33.5854 37.3584 31.6754C38.2312 29.7655 38.6829 27.6902 38.6829 25.5903C38.6829 21.6444 37.1154 17.86 34.3253 15.0698C31.5351 12.2797 27.7508 10.7122 23.8049 10.7122C19.859 10.7122 16.0747 12.2797 13.2845 15.0698C10.4943 17.86 8.92683 21.6444 8.92683 25.5903C8.92681 27.6902 9.37854 29.7655 10.2514 31.6754C11.1242 33.5854 12.3977 35.2852 13.9854 36.6595C9.81994 38.5457 6.28588 41.5917 3.80576 45.4333C1.32563 49.2748 0.00437967 53.7494 0 58.322V58.8873C0 59.6765 0.313499 60.4333 0.871534 60.9914C1.42957 61.5494 2.18643 61.863 2.97561 61.863C3.76479 61.863 4.52165 61.5494 5.07969 60.9914C5.63772 60.4333 5.95122 59.6765 5.95122 58.8873V58.322C5.93216 54.6875 7.02276 51.1339 9.0773 48.1358C11.1318 45.1378 14.0524 42.8382 17.4488 41.5443C20.8452 40.2504 24.5555 40.0239 28.0841 40.8951C31.6126 41.7663 34.7912 43.6936 37.1951 46.4195C37.1951 46.8064 37.1951 47.1931 37.1951 47.58V59.4824C37.1951 60.2716 37.5086 61.0285 38.0667 61.5865C38.6247 62.1446 39.3815 62.458 40.1707 62.458C40.9599 62.458 41.7168 62.1446 42.2748 61.5865C42.8328 61.0285 43.1463 60.2716 43.1463 59.4824V47.58C43.1463 42.8449 45.0274 38.3037 48.3756 34.9555C51.7238 31.6073 56.2649 29.7263 61 29.7263C65.7351 29.7263 70.2762 31.6073 73.6245 34.9555C76.9727 38.3037 78.8537 42.8449 78.8537 47.58V59.4824C78.8537 60.2716 79.1672 61.0285 79.7252 61.5865C80.2832 62.1446 81.0401 62.458 81.8293 62.458C82.6185 62.458 83.3753 62.1446 83.9333 61.5865C84.4914 61.0285 84.8049 60.2716 84.8049 59.4824V47.58C84.8049 47.1931 84.8049 46.8064 84.8049 46.4195C87.2088 43.6936 90.3874 41.7663 93.9159 40.8951C97.4444 40.0239 101.155 40.2504 104.551 41.5443C107.948 42.8382 110.868 45.1378 112.923 48.1358C114.977 51.1339 116.068 54.6875 116.049 58.322V58.8873C116.049 59.6765 116.362 60.4333 116.92 60.9914C117.478 61.5494 118.235 61.863 119.024 61.863C119.814 61.863 120.57 61.5494 121.128 60.9914C121.687 60.4333 122 59.6765 122 58.8873V58.322C122.003 53.7094 120.666 49.1953 118.152 45.3285C115.637 41.4616 112.053 38.4086 107.836 36.5405ZM23.8049 34.398C22.0393 34.398 20.3134 33.8745 18.8454 32.8936C17.3774 31.9127 16.2332 30.5185 15.5576 28.8873C14.8819 27.2562 14.7051 25.4613 15.0496 23.7297C15.394 21.9981 16.2442 20.4075 17.4926 19.159C18.7411 17.9106 20.3317 17.0604 22.0634 16.7159C23.795 16.3715 25.5899 16.5483 27.221 17.2239C28.8522 17.8996 30.2464 19.0437 31.2273 20.5117C32.2082 21.9797 32.7317 23.7057 32.7317 25.4712C32.7317 27.8388 31.7912 30.1094 30.1171 31.7835C28.443 33.4576 26.1724 34.398 23.8049 34.398ZM60.9107 23.8049C59.1452 23.8049 57.4193 23.2813 55.9513 22.3005C54.4832 21.3196 53.3391 19.9253 52.6634 18.2942C51.9878 16.663 51.811 14.8682 52.1554 13.1365C52.4999 11.4049 53.3501 9.81431 54.5985 8.56587C55.8469 7.31743 57.4376 6.4672 59.1692 6.12276C60.9008 5.77831 62.6957 5.95509 64.3269 6.63074C65.9581 7.30639 67.3522 8.45054 68.3331 9.91855C69.314 11.3866 69.8376 13.1125 69.8376 14.878C69.8376 17.2456 68.8971 19.5161 67.223 21.1902C65.5489 22.8643 63.2783 23.8049 60.9107 23.8049ZM98.0166 34.398C96.251 34.398 94.5251 33.8745 93.0571 32.8936C91.5891 31.9127 90.4449 30.5185 89.7693 28.8873C89.0936 27.2562 88.9169 25.4613 89.2613 23.7297C89.6057 21.9981 90.4559 20.4075 91.7044 19.159C92.9528 17.9106 94.5434 17.0604 96.2751 16.7159C98.0067 16.3715 99.8016 16.5483 101.433 17.2239C103.064 17.8996 104.458 19.0437 105.439 20.5117C106.42 21.9797 106.943 23.7057 106.943 25.4712C106.943 27.8388 106.003 30.1094 104.329 31.7835C102.655 33.4576 100.384 34.398 98.0166 34.398Z" fill="#6B83F2"/>
</svg>
