<svg width="73" height="74" viewBox="0 0 73 74" fill="none" xmlns="http://www.w3.org/2000/svg">
<path d="M40.0568 13.9229C38.8664 13.9925 37.6973 13.5834 36.806 12.7855C36.3259 12.3105 35.9496 11.7397 35.7013 11.1096C35.453 10.4795 35.3382 9.80407 35.3642 9.12664C35.3261 8.048 35.6002 6.98147 36.1531 6.05701C36.5789 5.39287 37.1659 4.84922 37.8586 4.47752C38.5512 4.10582 39.3265 3.91838 40.1112 3.93294C41.0737 3.90896 42.0213 4.17627 42.8315 4.70035L41.893 6.07072C41.3831 5.70547 40.7773 5.50044 40.152 5.48146C39.7495 5.47366 39.3511 5.56435 38.991 5.74575C38.6309 5.92714 38.3198 6.19383 38.0845 6.52294C37.6667 7.21839 37.4764 8.02852 37.5405 8.83886C37.4292 9.78384 37.6717 10.7367 38.2205 11.5111C38.4699 11.7922 38.7795 12.0124 39.126 12.1549C39.4725 12.2973 39.8466 12.3584 40.22 12.3333C40.8807 12.3378 41.5267 12.1368 42.0698 11.7578L43.0083 12.95C42.1626 13.6024 41.1217 13.9455 40.0568 13.9229Z" fill="#1D1D1B"/>
<path d="M45.6198 12.7033C45.1545 12.2071 44.794 11.6209 44.5602 10.9802C44.3264 10.3395 44.2242 9.65762 44.2597 8.97592C44.2597 5.85147 45.9735 4.01518 48.7754 4.01518C49.4237 3.98182 50.0711 4.09635 50.6693 4.35024C51.2675 4.60413 51.8011 4.99082 52.2302 5.48147C52.9988 6.46504 53.3812 7.69911 53.3048 8.94851C53.3832 10.2064 53.0223 11.4524 52.2846 12.4704C51.8712 12.9693 51.3461 13.3623 50.7527 13.6172C50.1592 13.8721 49.5142 13.9816 48.8706 13.9367C48.2736 13.9686 47.6765 13.8755 47.117 13.6632C46.5574 13.4509 46.0477 13.1241 45.6198 12.7033ZM50.7885 11.0589C50.9813 10.3871 51.064 9.6882 51.0333 8.98962C51.0789 8.19221 50.9584 7.39402 50.6797 6.64629C50.5175 6.26833 50.2405 5.95193 49.8886 5.74262C49.5366 5.53331 49.1278 5.44188 48.721 5.48147C48.3468 5.46198 47.975 5.55103 47.6495 5.73806C47.324 5.92509 47.0586 6.20225 46.8848 6.53666C46.5657 7.29324 46.426 8.11434 46.4767 8.93481C46.4236 9.84486 46.5966 10.7539 46.98 11.5796C47.175 11.8833 47.45 12.1262 47.7744 12.2811C48.0987 12.436 48.4595 12.4968 48.8162 12.4567C49.2561 12.4969 49.6958 12.3785 50.057 12.1225C50.4182 11.8665 50.6775 11.4895 50.7885 11.0589Z" fill="#1D1D1B"/>
<path d="M61.6291 9.6748C60.8861 10.1019 60.034 10.2974 59.1808 10.2366H57.8206V13.7037H55.8892V4.11109H58.6095C59.6023 4.00098 60.6064 4.15698 61.5202 4.56332C61.9818 4.79429 62.3688 5.15263 62.6361 5.59661C62.9034 6.04058 63.04 6.55193 63.03 7.07109C63.0512 7.59203 62.9322 8.10903 62.6855 8.56738C62.4389 9.02573 62.0739 9.40837 61.6291 9.6748ZM57.875 5.68702V8.66072H59.2352C59.4809 8.69053 59.7302 8.66546 59.9653 8.58731C60.2003 8.50915 60.4154 8.37982 60.5953 8.2085C60.8162 7.90371 60.9223 7.52968 60.8946 7.15332C60.9069 6.95931 60.8781 6.76488 60.81 6.58296C60.742 6.40103 60.6364 6.23576 60.5001 6.09813C60.0906 5.77798 59.5737 5.63059 59.0583 5.68702H57.875Z" fill="#1D1D1B"/>
<path d="M65.4783 13.7037V4.11108H67.5321V13.7037H65.4783Z" fill="#1D1D1B"/>
<path d="M11.9967 35.4241C12.5711 35.5874 13.067 35.9553 13.3923 36.4595C13.7176 36.9636 13.85 37.5697 13.7649 38.1648C13.8186 38.7648 13.6653 39.365 13.3308 39.8643C12.9962 40.3636 12.501 40.7314 11.9287 40.9056C11.5407 40.9945 11.1428 41.0313 10.7453 41.0152H9.15393V35.2733H10.4325C10.9584 35.2471 11.4853 35.2978 11.9967 35.4241ZM12.1191 36.7944C11.9991 36.6033 11.8287 36.4495 11.6269 36.3502C11.4252 36.251 11.2 36.2103 10.9765 36.2326H10.3509V40.1382H11.1126C11.3404 40.1393 11.5649 40.0828 11.7654 39.9737C12.0511 39.823 12.4455 39.4119 12.4455 38.3156C12.493 37.7737 12.3794 37.2299 12.1191 36.7533V36.7944Z" fill="#1D1D1B"/>
<path d="M15.3563 41.0289V35.2733H16.5805V41.0426L15.3563 41.0289Z" fill="#1D1D1B"/>
<path d="M21.6266 41.0289L21.0689 40.1108C20.8207 39.6055 20.4948 39.143 20.1032 38.7404C19.9864 38.6496 19.8426 38.6013 19.6951 38.6034V41.0015H18.5254V35.2734H20.4024C20.9803 35.2069 21.563 35.3476 22.0482 35.6708C22.2388 35.8253 22.3918 36.0217 22.4956 36.245C22.5993 36.4682 22.651 36.7124 22.6467 36.9589C22.663 37.3498 22.5318 37.7325 22.2794 38.03C22.0271 38.3274 21.6724 38.5176 21.2865 38.5622C21.3863 38.6395 21.4735 38.732 21.545 38.8363C21.7218 39.0693 22.0346 39.4804 22.293 39.8641L23.0819 41.0289H21.6266ZM19.6951 36.1778V37.7674H20.212C20.5519 37.8077 20.8956 37.7356 21.1913 37.5619C21.2768 37.4882 21.3435 37.3951 21.3861 37.2902C21.4287 37.1854 21.4458 37.0718 21.4361 36.9589C21.4506 36.8027 21.4093 36.6465 21.3195 36.5183C21.2297 36.3902 21.0974 36.2986 20.9465 36.26C20.7204 36.1992 20.4867 36.1715 20.2528 36.1778H19.6951Z" fill="#1D1D1B"/>
<path d="M24.4014 41.0289V35.2733H28.0194L27.8426 36.2189H25.5983V37.5892H27.4753V38.5485H25.6119V40.0833H28.0874V41.0837L24.4014 41.0289Z" fill="#1D1D1B"/>
<path d="M33.4872 36.2325H31.9366V41.0288H30.7397V36.2325H29.1619V35.2596H33.6912L33.4872 36.2325Z" fill="#1D1D1B"/>
<path d="M35.2146 40.3985C34.9359 40.101 34.7199 39.7497 34.5796 39.3658C34.4394 38.9819 34.3778 38.5733 34.3985 38.1648C34.3264 37.5792 34.4438 36.9857 34.7333 36.4727C35.0227 35.9598 35.4688 35.5546 36.0052 35.3175C36.5415 35.0804 37.1395 35.0241 37.7102 35.1568C38.2809 35.2896 38.7938 35.6044 39.1727 36.0544C39.6376 36.644 39.8701 37.3857 39.8256 38.1374C39.8724 38.8913 39.6559 39.6379 39.2135 40.2478C38.9646 40.5474 38.6486 40.7832 38.2915 40.9356C37.9344 41.0881 37.5465 41.1529 37.1596 41.1248C36.8033 41.1448 36.4467 41.0907 36.1121 40.9657C35.7774 40.8408 35.4719 40.6477 35.2146 40.3985ZM38.3158 39.4118C38.4318 39.0116 38.4824 38.5951 38.4654 38.1785C38.486 37.7116 38.412 37.2453 38.2478 36.8081C38.1504 36.5796 37.983 36.3885 37.7701 36.2628C37.5572 36.137 37.3099 36.0832 37.0644 36.1092C36.8404 36.0983 36.6178 36.1517 36.4228 36.2634C36.2277 36.375 36.0682 36.5401 35.9627 36.7396C35.7816 37.1726 35.698 37.6406 35.7179 38.11C35.6826 38.6715 35.7902 39.2329 36.0307 39.7407C36.1481 39.9221 36.3134 40.067 36.5081 40.159C36.7027 40.2509 36.9189 40.2864 37.1324 40.2615C37.3979 40.2857 37.6632 40.2133 37.8803 40.0574C38.0974 39.9016 38.2519 39.6725 38.3158 39.4118Z" fill="#1D1D1B"/>
<path d="M44.4774 41.0289L43.9197 40.1108C43.6697 39.6067 43.3439 39.1445 42.954 38.7404C42.8373 38.6496 42.6934 38.6013 42.546 38.6034V41.0015H41.3762V35.2734H43.3077C43.8583 35.2119 44.4135 35.3373 44.8854 35.6297C45.0753 35.7849 45.2278 35.9814 45.3314 36.2045C45.4351 36.4276 45.4872 36.6715 45.4839 36.9178C45.5002 37.3087 45.369 37.6914 45.1167 37.9889C44.8643 38.2863 44.5096 38.4765 44.1238 38.5211C44.2235 38.5984 44.3107 38.6909 44.3822 38.7952C44.559 39.0282 44.8718 39.4393 45.1303 39.823L45.9192 40.9878L44.4774 41.0289ZM42.546 36.1778V37.7674H43.0628C43.4028 37.8078 43.7465 37.7356 44.0421 37.5619C44.1276 37.4882 44.1944 37.3951 44.237 37.2902C44.2795 37.1854 44.2967 37.0718 44.287 36.9589C44.3015 36.8027 44.2601 36.6465 44.1703 36.5183C44.0805 36.3902 43.9482 36.2986 43.7973 36.26C43.5712 36.1992 43.3376 36.1715 43.1036 36.1778H42.546Z" fill="#1D1D1B"/>
<path d="M47.2657 41.0289V35.2733H48.4899V41.0426L47.2657 41.0289Z" fill="#1D1D1B"/>
<path d="M53.7537 41.0289L53.2504 39.6585H51.3054L50.8158 41.0289H49.578L51.6863 35.2459H53.0464L55.0867 41.0289H53.7537ZM52.3119 36.3696C52.3119 36.6985 51.7135 38.3841 51.6046 38.7267H52.9648C52.8696 38.3704 52.3527 36.6985 52.2983 36.3696H52.3119Z" fill="#1D1D1B"/>
<path d="M61.425 35.4241C61.9978 35.5899 62.492 35.9584 62.8168 36.4619C63.1417 36.9654 63.2753 37.5701 63.1932 38.1648C63.2469 38.7648 63.0935 39.3651 62.759 39.8643C62.4245 40.3636 61.9293 40.7314 61.357 40.9056C60.969 40.9946 60.5711 41.0315 60.1736 41.0152H58.5958V35.2734H59.8472C60.3776 35.2457 60.9092 35.2965 61.425 35.4241ZM61.5474 36.7945C61.4274 36.6033 61.257 36.4495 61.0552 36.3503C60.8534 36.251 60.6283 36.2103 60.4048 36.2326H59.8472V40.1382H60.5953C60.8231 40.1393 61.0476 40.0828 61.2481 39.9737C61.5338 39.823 61.9282 39.4119 61.9282 38.3156C61.9592 37.7682 61.8266 37.224 61.5474 36.7534V36.7945Z" fill="#1D1D1B"/>
<path d="M64.7847 41.0289V35.2733H68.3891L68.2123 36.2189H65.9816V37.5892H67.8586V38.5485H65.9816V40.0833H68.4707V41.0837L64.7847 41.0289Z" fill="#1D1D1B"/>
<path d="M13.7241 54.1844C13.3653 54.1974 13.0075 54.1387 12.6714 54.0117C12.3352 53.8847 12.0273 53.6919 11.7655 53.4444C11.4828 53.1693 11.2587 52.8391 11.1067 52.4739C10.9547 52.1088 10.878 51.7163 10.8814 51.3203C10.8607 50.6748 11.026 50.037 11.3574 49.484C11.6101 49.0816 11.9625 48.7524 12.3799 48.5289C12.7973 48.3054 13.2653 48.1954 13.7377 48.2096C14.3051 48.1987 14.8632 48.356 15.3427 48.6618L14.785 49.4429C14.4821 49.2414 14.1279 49.1319 13.7649 49.1277C13.5292 49.1272 13.2967 49.1828 13.0863 49.2899C12.8759 49.3971 12.6937 49.5528 12.5544 49.7444C12.3077 50.1563 12.1937 50.635 12.2279 51.1148C12.1541 51.6783 12.2897 52.2494 12.6088 52.7181C12.7544 52.8936 12.938 53.033 13.1455 53.1257C13.353 53.2183 13.5789 53.2617 13.8057 53.2526C14.2035 53.256 14.5928 53.1364 14.9211 52.91L15.4787 53.6226C14.9729 54.0027 14.3549 54.2005 13.7241 54.1844Z" fill="#1D1D1B"/>
<path d="M17.0564 53.4445C16.7777 53.147 16.5617 52.7957 16.4214 52.4118C16.2812 52.0279 16.2196 51.6193 16.2403 51.2108C16.19 50.8282 16.2237 50.4392 16.3393 50.0712C16.4548 49.7033 16.6493 49.3655 16.9089 49.0817C17.1685 48.7979 17.4868 48.5752 17.8414 48.4292C18.196 48.2832 18.5781 48.2176 18.9606 48.2371C19.3474 48.2157 19.7341 48.2821 20.0919 48.4316C20.4498 48.581 20.7697 48.8096 21.0281 49.1004C21.493 49.69 21.7255 50.4317 21.681 51.1834C21.729 51.9374 21.5123 52.6844 21.0689 53.2937C20.82 53.5934 20.504 53.8291 20.1469 53.9816C19.7898 54.1341 19.4019 54.1989 19.0151 54.1708C18.6565 54.1927 18.2973 54.1395 17.9602 54.0145C17.623 53.8895 17.3153 53.6954 17.0564 53.4445ZM20.1576 52.4578C20.2744 52.0578 20.3249 51.6411 20.3072 51.2245C20.3275 50.7576 20.2534 50.2914 20.0896 49.8541C19.9922 49.6256 19.8248 49.4345 19.6119 49.3088C19.399 49.183 19.1517 49.1292 18.9062 49.1552C18.6822 49.1443 18.4596 49.1977 18.2646 49.3093C18.0695 49.4209 17.91 49.5861 17.8045 49.7856C17.6234 50.2185 17.5398 50.6866 17.5597 51.156C17.5271 51.7026 17.6299 52.2489 17.8589 52.7456C17.9763 52.927 18.1417 53.0718 18.3363 53.1638C18.5309 53.2558 18.7471 53.2913 18.9606 53.2663C19.2211 53.2967 19.4838 53.2337 19.7026 53.0883C19.9215 52.943 20.0826 52.7246 20.1576 52.4715V52.4578Z" fill="#1D1D1B"/>
<path d="M23.6532 53.4445C23.3745 53.147 23.1585 52.7957 23.0182 52.4118C22.878 52.0279 22.8164 51.6193 22.8371 51.2108C22.7868 50.8282 22.8205 50.4392 22.9361 50.0712C23.0516 49.7033 23.2461 49.3655 23.5057 49.0817C23.7653 48.7979 24.0836 48.5752 24.4382 48.4292C24.7928 48.2832 25.1749 48.2176 25.5575 48.2371C25.9443 48.2157 26.3309 48.2821 26.6887 48.4316C27.0466 48.581 27.3665 48.8096 27.6249 49.1004C28.0898 49.69 28.3223 50.4317 28.2778 51.1834C28.3258 51.9374 28.1091 52.6844 27.6657 53.2937C27.4168 53.5934 27.1008 53.8291 26.7437 53.9816C26.3866 54.1341 25.9987 54.1989 25.6119 54.1708C25.2533 54.1927 24.8941 54.1395 24.557 54.0145C24.2198 53.8895 23.9121 53.6954 23.6532 53.4445ZM26.7544 52.4578C26.8712 52.0578 26.9217 51.6411 26.904 51.2245C26.9239 50.7576 26.8499 50.2915 26.6864 49.8541C26.589 49.6256 26.4216 49.4345 26.2087 49.3088C25.9958 49.183 25.7485 49.1292 25.503 49.1552C25.279 49.1443 25.0564 49.1977 24.8614 49.3093C24.6663 49.4209 24.5068 49.5861 24.4013 49.7856C24.2202 50.2185 24.1366 50.6866 24.1565 51.156C24.1254 51.7187 24.2378 52.2801 24.4829 52.7867C24.6004 52.9681 24.7657 53.1129 24.9603 53.2049C25.1549 53.2969 25.3711 53.3324 25.5847 53.3074C25.8461 53.3289 26.1066 53.2569 26.3206 53.104C26.5345 52.9511 26.6881 52.7272 26.7544 52.4715V52.4578Z" fill="#1D1D1B"/>
<path d="M33.256 51.6493C32.8108 51.9073 32.2996 52.0265 31.7871 51.9919H31.0118V54.1022H29.8148V48.333H31.4606C32.0593 48.2662 32.6648 48.3607 33.2152 48.607C33.4915 48.744 33.7237 48.957 33.8849 49.2213C34.0462 49.4856 34.13 49.7905 34.1265 50.1007C34.1332 50.4139 34.0558 50.723 33.9026 50.9956C33.7494 51.2681 33.526 51.494 33.256 51.6493ZM31.0118 49.2511V51.0326H31.8007C31.9569 51.0478 32.1146 51.026 32.261 50.9689C32.4075 50.9118 32.5386 50.821 32.644 50.7037C32.7745 50.521 32.8371 50.2979 32.8208 50.0733C32.826 49.958 32.8083 49.8428 32.7685 49.7345C32.7288 49.6263 32.668 49.5271 32.5895 49.443C32.3461 49.2527 32.0391 49.1643 31.7326 49.1963L31.0118 49.2511Z" fill="#1D1D1B"/>
<path d="M35.5684 54.0886V48.333H39.1728L38.996 49.2786H36.7245V50.6489H38.6287V51.6082H36.7245V53.143H39.2136V54.1434L35.5684 54.0886Z" fill="#1D1D1B"/>
<path d="M44.0013 54.0885L43.4437 53.1703C43.1936 52.6663 42.8678 52.204 42.4779 51.8C42.3612 51.7092 42.2174 51.6609 42.0699 51.6629V54.0611H40.9001V48.3329H42.8316C43.4094 48.2677 43.9917 48.4083 44.4774 48.7303C44.6672 48.8856 44.8197 49.0821 44.9233 49.3052C45.027 49.5283 45.0791 49.7722 45.0759 50.0185C45.0921 50.4094 44.9609 50.7921 44.7086 51.0895C44.4563 51.387 44.1015 51.5772 43.7157 51.6218C43.8154 51.6991 43.9026 51.7916 43.9741 51.8959C44.1509 52.1289 44.4638 52.54 44.7222 52.9237L45.5111 54.0885H44.0013ZM42.0699 49.2374V50.827H42.5868C42.9267 50.8673 43.2704 50.7952 43.5661 50.6215C43.6515 50.5478 43.7183 50.4547 43.7609 50.3498C43.8035 50.245 43.8206 50.1314 43.8109 50.0185C43.8254 49.8623 43.784 49.706 43.6942 49.5779C43.6045 49.4497 43.4722 49.3581 43.3212 49.3196C43.0952 49.2586 42.8615 49.2309 42.6276 49.2374H42.0699Z" fill="#1D1D1B"/>
<path d="M50.1084 54.0885L49.6051 52.7181H47.6057L47.116 54.0885H45.8783L48.0002 48.3055H49.3603L51.4006 54.0885H50.1084ZM48.6666 49.4292C48.6666 49.7581 48.0682 51.4437 47.9593 51.7863H49.3195C49.2379 51.4163 48.721 49.7444 48.6666 49.4292Z" fill="#1D1D1B"/>
<path d="M54.9779 54.1845L54.8963 54.4448C54.9999 54.4464 55.1022 54.4693 55.1967 54.5121C55.2912 54.5549 55.3761 54.6166 55.4461 54.6936C55.5162 54.7706 55.5699 54.8611 55.604 54.9597C55.6381 55.0583 55.6518 55.1629 55.6444 55.267C55.6363 55.4049 55.6 55.5397 55.5377 55.6627C55.4754 55.7858 55.3885 55.8945 55.2825 55.982C55.1764 56.0696 55.0535 56.134 54.9215 56.1714C54.7895 56.2087 54.6513 56.2181 54.5155 56.1989C54.1961 56.1824 53.8846 56.0934 53.6042 55.9385L53.8898 55.3356C54.074 55.4361 54.2789 55.4924 54.4883 55.5C54.6651 55.5 54.8147 55.3904 54.8147 55.2533C54.8147 55.1163 54.6787 54.993 54.4747 54.993C54.3795 54.9879 54.2842 54.9879 54.189 54.993L54.0666 54.8148L54.2706 54.0748C53.7691 54.001 53.298 53.7874 52.9105 53.4582C52.6201 53.1724 52.3925 52.8283 52.2425 52.4482C52.0926 52.0681 52.0235 51.6605 52.04 51.2519C52.0193 50.6063 52.1846 49.9685 52.516 49.4156C52.7675 49.0151 53.1177 48.6872 53.5325 48.4639C53.9473 48.2405 54.4125 48.1293 54.8827 48.1411C55.4547 48.1275 56.0179 48.2849 56.5013 48.5933L55.9436 49.3744C55.64 49.1743 55.2863 49.065 54.9235 49.0593C54.6884 49.0619 54.4569 49.1189 54.2471 49.2258C54.0372 49.3327 53.8545 49.4867 53.713 49.6759C53.4564 50.084 53.3372 50.5646 53.3729 51.0463C53.3029 51.6096 53.4383 52.1793 53.7538 52.6496C53.9015 52.8262 54.0874 52.9662 54.2973 53.0588C54.5072 53.1515 54.7354 53.1943 54.9643 53.1841C55.3644 53.189 55.7555 53.0641 56.0797 52.8278L56.6373 53.5541C56.1665 53.9397 55.5842 54.1609 54.9779 54.1845Z" fill="#1D1D1B"/>
<path d="M61.2073 54.0885L60.7041 52.7181H58.7182L58.2286 54.0885H56.9908L59.1127 48.3055H60.4728L62.5131 54.0885H61.2073ZM60.5817 46.7707C60.7243 46.766 60.8639 46.7275 60.9891 46.6585C61.1143 46.5895 61.2217 46.4918 61.3025 46.3733L61.697 47.0311C61.553 47.2604 61.3513 47.4471 61.1124 47.5723C60.8734 47.6975 60.6058 47.7566 60.3368 47.7437C59.684 47.7437 59.5615 47.2914 58.9767 47.2914C58.8356 47.295 58.6976 47.333 58.5744 47.4022C58.4512 47.4715 58.3465 47.5698 58.2694 47.6888L57.8749 47.0311C58.0157 46.7987 58.2168 46.6095 58.4565 46.4839C58.6962 46.3583 58.9655 46.3011 59.2351 46.3185C59.8472 46.3322 59.9152 46.7707 60.5409 46.7707H60.5817ZM59.7656 49.4292C59.7656 49.7581 59.1671 51.4437 59.0583 51.7862H60.4184C60.296 51.4163 59.7792 49.7444 59.7248 49.4292H59.7656Z" fill="#1D1D1B"/>
<path d="M63.9277 53.4444C63.649 53.1469 63.433 52.7956 63.2928 52.4117C63.1525 52.0278 63.0909 51.6192 63.1117 51.2107C63.0395 50.6251 63.1569 50.0316 63.4464 49.5186C63.7359 49.0056 64.182 48.6005 64.7183 48.3634C65.2547 48.1263 65.8526 48.0699 66.4233 48.2027C66.994 48.3355 67.507 48.6503 67.8858 49.1003C68.3507 49.6899 68.5832 50.4316 68.5387 51.1833C68.6104 51.9275 68.4229 52.6736 68.0082 53.2937C67.7593 53.5933 67.4433 53.8291 67.0862 53.9815C66.7291 54.134 66.3412 54.1988 65.9544 54.1707C65.5847 54.2025 65.2125 54.1541 64.863 54.0288C64.5134 53.9035 64.1945 53.7042 63.9277 53.4444ZM67.0289 52.4577C67.1454 52.0576 67.196 51.641 67.1785 51.2244C67.1984 50.7575 67.1244 50.2914 66.9609 49.854C66.8635 49.6255 66.6961 49.4344 66.4832 49.3087C66.2703 49.1829 66.023 49.1291 65.7776 49.1551C65.5535 49.1442 65.331 49.1976 65.1359 49.3092C64.9408 49.4209 64.7813 49.586 64.6758 49.7855C64.4947 50.2185 64.4111 50.6865 64.431 51.1559C64.3984 51.7026 64.5012 52.2488 64.7302 52.7455C64.8477 52.9269 65.013 53.0718 65.2076 53.1637C65.4022 53.2557 65.6184 53.2912 65.832 53.2662C66.0988 53.3071 66.3713 53.249 66.5989 53.1029C66.8265 52.9567 66.9938 52.7324 67.0697 52.4714L67.0289 52.4577Z" fill="#1D1D1B"/>
<path d="M3.69958 67.1482V61.3789H4.92373V67.1482H3.69958Z" fill="#1D1D1B"/>
<path d="M10.0244 67.1482L8.66421 64.4896C8.39396 64.0189 8.14879 63.534 7.92972 63.0371C7.92972 63.3933 7.92972 64.0648 7.92972 64.6541V67.1756H6.80078V61.3789H8.16095L9.60272 63.9826C9.84136 64.4229 10.046 64.881 10.2148 65.353C10.2148 65.0515 10.1332 64.4211 10.1332 63.8593V61.4063H11.2621V67.1482H10.0244Z" fill="#1D1D1B"/>
<path d="M16.322 66.9289C15.8347 67.1658 15.2987 67.2832 14.7578 67.2715C14.0255 67.2695 13.3037 67.0959 12.6495 66.7644L13.0576 65.7778C13.5973 66.07 14.1995 66.2252 14.8122 66.23C15.0787 66.2402 15.3439 66.1886 15.5875 66.0792C15.7034 66.0348 15.8031 65.956 15.8735 65.8532C15.944 65.7505 15.9818 65.6286 15.9819 65.5037C15.9819 65.1337 15.7099 64.9007 15.0706 64.7363L14.3089 64.5444C13.8262 64.4549 13.397 64.1797 13.112 63.777C12.9685 63.5557 12.8842 63.3008 12.8672 63.037C12.8672 62.0092 13.7785 61.2692 15.0978 61.2692C15.8407 61.2686 16.5697 61.4724 17.2061 61.8585L16.6484 62.6944C16.1874 62.4147 15.6629 62.259 15.125 62.2422C14.5538 62.2422 14.1593 62.4889 14.1593 62.9C14.1593 63.3111 14.3497 63.407 14.9346 63.5578L15.6963 63.7359C16.1359 63.8304 16.5436 64.0381 16.8796 64.3389C17.0172 64.4797 17.1253 64.6468 17.1978 64.8303C17.2702 65.0139 17.3054 65.2102 17.3013 65.4077C17.2911 65.7271 17.1944 66.0376 17.0218 66.3057C16.8492 66.5738 16.6072 66.7892 16.322 66.9289Z" fill="#1D1D1B"/>
<path d="M22.6331 62.3519H21.0825V67.1482H19.8855V62.3519H18.3077V61.3789H22.8371L22.6331 62.3519Z" fill="#1D1D1B"/>
<path d="M23.9388 67.1482V61.3789H25.163V67.1482H23.9388Z" fill="#1D1D1B"/>
<path d="M30.8486 62.3519H29.2844V67.1482H28.0874V62.3519H26.5096V61.3789H31.039L30.8486 62.3519Z" fill="#1D1D1B"/>
<path d="M36.126 66.6959C35.6381 67.1002 35.0152 67.3012 34.385 67.2578C34.0034 67.3002 33.6174 67.2446 33.263 67.096C32.9086 66.9474 32.5974 66.7108 32.3583 66.4082C32.1454 66.0397 32.0549 65.6124 32.0999 65.1885V61.3789H33.3104V64.9967C33.2876 65.2654 33.32 65.536 33.4057 65.7915C33.505 65.9554 33.6486 66.0874 33.8195 66.1723C33.9905 66.2572 34.1818 66.2915 34.3714 66.2711C34.5232 66.2856 34.6763 66.2661 34.8197 66.214C34.9632 66.1619 35.0934 66.0784 35.2011 65.9696C35.3507 65.7915 35.4187 65.6133 35.4187 65.0378V61.3789H36.6292V65.1474C36.6156 66.0382 36.4932 66.3396 36.126 66.6959Z" fill="#1D1D1B"/>
<path d="M40.8049 67.2441C40.0879 67.2851 39.3838 67.0388 38.8463 66.5589C38.5823 66.2703 38.3787 65.931 38.2479 65.5614C38.117 65.1917 38.0614 64.7992 38.0846 64.4074C38.0639 63.7619 38.2292 63.1241 38.5606 62.5711C38.8133 62.1687 39.1657 61.8395 39.5831 61.616C40.0005 61.3925 40.4685 61.2825 40.9409 61.2967C41.5084 61.285 42.0668 61.4423 42.5459 61.7489L41.9883 62.53C41.6853 62.3285 41.3312 62.219 40.9681 62.2148C40.7324 62.2143 40.4999 62.2698 40.2895 62.377C40.0791 62.4842 39.8969 62.6399 39.7576 62.8315C39.5118 63.2437 39.3978 63.7222 39.4311 64.2019C39.3429 64.748 39.454 65.3079 39.744 65.7778C39.8896 65.9533 40.0732 66.0927 40.2807 66.1853C40.4882 66.278 40.7141 66.3214 40.9409 66.3122C41.3387 66.3156 41.728 66.1961 42.0563 65.9696L42.6139 66.6822C42.0934 67.0743 41.4542 67.2728 40.8049 67.2441Z" fill="#1D1D1B"/>
<path d="M43.7565 67.1482V61.3789H44.9806V67.1482H43.7565Z" fill="#1D1D1B"/>
<path d="M47.3473 66.5178C47.0686 66.2203 46.8526 65.869 46.7123 65.4851C46.5721 65.1012 46.5105 64.6926 46.5312 64.2841C46.4809 63.9015 46.5146 63.5125 46.6302 63.1445C46.7457 62.7766 46.9402 62.4388 47.1998 62.155C47.4593 61.8712 47.7777 61.6485 48.1323 61.5025C48.4869 61.3565 48.869 61.291 49.2515 61.3104C49.6383 61.289 50.025 61.3554 50.3828 61.5049C50.7407 61.6543 51.0606 61.8829 51.319 62.1737C51.7839 62.7633 52.0164 63.505 51.9719 64.2567C52.0187 65.0106 51.8022 65.7572 51.3598 66.367C51.1109 66.6667 50.7949 66.9024 50.4378 67.0549C50.0807 67.2074 49.6928 67.2722 49.306 67.2441C48.9473 67.2669 48.5879 67.2141 48.2506 67.089C47.9134 66.9639 47.6057 66.7694 47.3473 66.5178ZM50.4485 65.5311C50.5645 65.1309 50.6151 64.7144 50.5981 64.2978C50.6187 63.8308 50.5447 63.3646 50.3805 62.9274C50.2838 62.7013 50.1186 62.5119 49.9084 62.3864C49.6982 62.2608 49.454 62.2055 49.2107 62.2285C48.9867 62.2176 48.7641 62.271 48.5691 62.3826C48.374 62.4942 48.2145 62.6594 48.109 62.8589C47.9279 63.2918 47.8443 63.7599 47.8642 64.2293C47.8335 64.7611 47.9315 65.2925 48.1498 65.7778C48.2684 65.9581 48.4339 66.102 48.6282 66.1939C48.8225 66.2857 49.0382 66.3219 49.2515 66.2985C49.5085 66.3304 49.7684 66.2713 49.9867 66.1313C50.2051 65.9913 50.3684 65.7791 50.4485 65.5311Z" fill="#1D1D1B"/>
<path d="M56.6645 67.1482L55.3043 64.4896C55.0347 64.0186 54.7895 63.5337 54.5698 63.0371C54.5698 63.3933 54.5698 64.0648 54.5698 64.6541V67.1756H53.4137V61.3789H54.7739L56.2156 63.9826C56.4549 64.4226 56.6596 64.8808 56.8277 65.353C56.8277 65.0515 56.7461 64.4211 56.7461 63.8593V61.4063H57.875V67.1482H56.6645Z" fill="#1D1D1B"/>
<path d="M63.1524 67.1482L62.6491 65.7778H60.7041L60.2144 67.1482H58.9767L61.0985 61.3652H62.4587L64.4445 67.1482H63.1524ZM61.7106 62.4889C61.7106 62.8178 61.1121 64.5034 61.0033 64.846H62.3635C62.2819 64.4075 61.765 62.8041 61.7106 62.4889Z" fill="#1D1D1B"/>
<path d="M68.8244 67.1482H65.5192V61.3789H66.7161V66.1615H69.042L68.8244 67.1482Z" fill="#1D1D1B"/>
<path d="M69.1779 19.9937H36.2075V28.0104H69.1779V19.9937Z" fill="#C00D0D"/>
</svg>
