<svg width="164" height="22" viewBox="0 0 164 22" fill="none" xmlns="http://www.w3.org/2000/svg">
<path fill-rule="evenodd" clip-rule="evenodd" d="M81.1148 21.891H74.4707L59.5208 2.79411V21.891H54.2707V0H63.307L75.9958 16.1335V0H81.1148V21.891Z" fill="#0069A6"/>
<path d="M0 0.203677H21.6553V4.24566H4.87921V9.22284H20.7715V13.239H4.87921V22H0V0.203677Z" fill="#0069A6"/>
<path d="M31.0318 0.0946668V12.6423C31.0318 16.3946 34.5615 17.2494 38.0578 17.2494C41.6434 17.2494 45.1731 16.4921 45.1731 12.6423V0.0946668H50.4315V12.3153C50.4315 19.0424 45.728 21.782 37.832 21.782C30.2093 21.782 25.726 19.2002 25.726 12.2579V0.0946668H31.0318Z" fill="#0069A6"/>
<path d="M135.609 12.6739H119.716V17.8375H137.092V21.8881H115.029V0.0860608H136.381V4.12805H119.722V8.66632H135.614L135.609 12.6739Z" fill="#0069A6"/>
<path d="M109.007 2.03103C107.694 0.883557 105.469 0.172122 102.458 0.172122H85.0404V4.73908H100.88C102.851 4.73908 104.067 5.06898 104.978 5.73165C105.739 6.39718 106.191 7.56187 106.191 9.05933V13.3824C106.191 14.8799 105.739 15.8811 105.129 16.538C104.518 17.1949 103.311 17.5363 101.783 17.5363H85.0404V21.9627H104.156C106.515 21.9627 108.338 21.389 109.395 20.2415C110.571 19.094 111.095 17.3728 111.095 15.0778V7.48155C111.098 5.04316 110.443 3.17851 109.007 2.03103Z" fill="#0069A6"/>
<path d="M163.47 3.76659C162.993 2.70132 162.216 1.80792 161.24 1.20198C160.577 0.862083 159.87 0.622465 159.14 0.490546C158.105 0.300003 157.055 0.204006 156.004 0.203677H140.822V4.73908H156.807C157.841 4.73908 158.535 4.92554 159.057 5.48781C159.578 6.05007 159.743 6.98526 159.743 8.11266C159.743 9.61299 159.57 10.551 159.057 11.1133C158.769 11.4273 158.42 11.6739 158.031 11.8362C157.643 11.9986 157.225 12.073 156.807 12.0542H140.822V21.8508H145.49V16.4405H158.106C160.336 16.4405 161.772 15.8667 162.69 14.593C163.607 13.4456 164 11.3141 164 8.46838C163.997 6.4689 163.866 4.76203 163.47 3.76659Z" fill="#0069A6"/>
</svg>
