<svg width="60" height="60" viewBox="0 0 60 60" fill="none" xmlns="http://www.w3.org/2000/svg">
<path d="M57.905 24.2401C57.062 23.228 56.0071 22.4133 54.8147 21.8535C53.6224 21.2937 52.3217 21.0023 51.0044 21.0001H37.3232L39.0034 16.7101C39.7022 14.8317 39.935 12.8119 39.6816 10.8239C39.4283 8.83582 38.6964 6.9389 37.5488 5.29581C36.4012 3.65272 34.8721 2.31252 33.0927 1.39016C31.3133 0.467802 29.3367 -0.00917826 27.3324 0.000133773C26.7552 0.00133786 26.1907 0.168959 25.7064 0.482901C25.2222 0.796843 24.8388 1.24378 24.6021 1.77013L16.0514 21.0001H9.00078C6.61363 21.0001 4.32424 21.9483 2.63627 23.6361C0.948294 25.3239 0 27.6131 0 30.0001V51C0 53.387 0.948294 55.6761 2.63627 57.364C4.32424 59.0518 6.61363 60 9.00078 60H47.1941C49.2997 59.9993 51.3384 59.2605 52.9556 57.9121C54.5727 56.5637 55.6659 54.6911 56.0449 52.62L59.8552 31.6201C60.0909 30.3222 60.0384 28.9884 59.7014 27.7131C59.3643 26.4378 58.7511 25.2521 57.905 24.2401ZM15.0013 54H9.00078C8.20506 54 7.44194 53.6839 6.87928 53.1213C6.31662 52.5587 6.00052 51.7957 6.00052 51V30.0001C6.00052 29.2044 6.31662 28.4414 6.87928 27.8788C7.44194 27.3161 8.20506 27.0001 9.00078 27.0001H15.0013V54ZM54.0047 30.5401L50.1944 51.54C50.0666 52.2389 49.6949 52.8697 49.1454 53.3202C48.596 53.7707 47.9045 54.0116 47.1941 54H21.0018V24.6301L29.1625 6.27012C30.0026 6.515 30.7827 6.93134 31.4537 7.49287C32.1247 8.0544 32.672 8.74892 33.0611 9.53259C33.4501 10.3163 33.6725 11.1721 33.7141 12.046C33.7557 12.9199 33.6157 13.793 33.3029 14.6101L31.7128 18.9001C31.3739 19.8069 31.2595 20.7821 31.3794 21.7427C31.4992 22.7032 31.8496 23.6205 32.4008 24.4163C32.952 25.2121 33.6876 25.8627 34.5447 26.3126C35.4019 26.7625 36.3552 26.9984 37.3232 27.0001H51.0044C51.4452 26.9994 51.8807 27.0958 52.28 27.2824C52.6793 27.4691 53.0325 27.7414 53.3146 28.0801C53.6037 28.414 53.8154 28.8077 53.9347 29.2329C54.0539 29.6582 54.0779 30.1045 54.0047 30.5401Z" fill="#6B83F2"/>
</svg>
