<svg width="62" height="62" viewBox="0 0 62 62" fill="none" xmlns="http://www.w3.org/2000/svg">
<path d="M28.1818 22.5455H39.4546C40.202 22.5455 40.9188 22.2485 41.4473 21.72C41.9758 21.1915 42.2727 20.4747 42.2727 19.7273C42.2727 18.9798 41.9758 18.263 41.4473 17.7345C40.9188 17.206 40.202 16.9091 39.4546 16.9091H33.8182V14.0909C33.8182 13.3435 33.5213 12.6267 32.9928 12.0982C32.4642 11.5696 31.7474 11.2727 31 11.2727C30.2526 11.2727 29.5358 11.5696 29.0073 12.0982C28.4787 12.6267 28.1818 13.3435 28.1818 14.0909V16.9091C25.9395 16.9091 23.7891 17.7998 22.2036 19.3854C20.618 20.9709 19.7273 23.1213 19.7273 25.3636C19.7273 27.6059 20.618 29.7564 22.2036 31.3419C23.7891 32.9274 25.9395 33.8182 28.1818 33.8182H33.8182C34.5656 33.8182 35.2824 34.1151 35.8109 34.6436C36.3395 35.1721 36.6364 35.8889 36.6364 36.6364C36.6364 37.3838 36.3395 38.1006 35.8109 38.6291C35.2824 39.1576 34.5656 39.4545 33.8182 39.4545H22.5455C21.798 39.4545 21.0812 39.7515 20.5527 40.28C20.0242 40.8085 19.7273 41.5253 19.7273 42.2727C19.7273 43.0201 20.0242 43.737 20.5527 44.2655C21.0812 44.794 21.798 45.0909 22.5455 45.0909H28.1818V47.9091C28.1818 48.6565 28.4787 49.3733 29.0073 49.9018C29.5358 50.4304 30.2526 50.7273 31 50.7273C31.7474 50.7273 32.4642 50.4304 32.9928 49.9018C33.5213 49.3733 33.8182 48.6565 33.8182 47.9091V45.0909C36.0605 45.0909 38.2109 44.2002 39.7965 42.6146C41.382 41.0291 42.2727 38.8786 42.2727 36.6364C42.2727 34.3941 41.382 32.2436 39.7965 30.6581C38.2109 29.0726 36.0605 28.1818 33.8182 28.1818H28.1818C27.4344 28.1818 26.7176 27.8849 26.1891 27.3564C25.6606 26.8279 25.3636 26.1111 25.3636 25.3636C25.3636 24.6162 25.6606 23.8994 26.1891 23.3709C26.7176 22.8424 27.4344 22.5455 28.1818 22.5455ZM31 0C24.8688 0 18.8753 1.81812 13.7773 5.22444C8.67941 8.63076 4.70606 13.4723 2.35975 19.1368C0.0134319 24.8013 -0.600471 31.0344 0.59567 37.0478C1.79181 43.0612 4.74428 48.5849 9.0797 52.9203C13.4151 57.2557 18.9388 60.2082 24.9522 61.4043C30.9656 62.6005 37.1987 61.9866 42.8632 59.6403C48.5277 57.2939 53.3692 53.3206 56.7756 48.2227C60.1819 43.1247 62 37.1312 62 31C62 22.7783 58.7339 14.8933 52.9203 9.07969C47.1067 3.26606 39.2217 0 31 0ZM31 56.3636C25.9836 56.3636 21.0798 54.8761 16.9087 52.0891C12.7377 49.3021 9.48678 45.3408 7.56707 40.7062C5.64735 36.0716 5.14507 30.9719 6.12373 26.0518C7.10239 21.1317 9.51804 16.6124 13.0652 13.0652C16.6124 9.51803 21.1317 7.10238 26.0518 6.12372C30.9719 5.14506 36.0717 5.64734 40.7062 7.56705C45.3408 9.48677 49.3021 12.7377 52.0891 16.9087C54.8761 21.0797 56.3636 25.9835 56.3636 31C56.3636 37.7268 53.6914 44.1782 48.9348 48.9348C44.1782 53.6914 37.7269 56.3636 31 56.3636Z" fill="#6B83F2"/>
</svg>
