<svg width="128" height="38" viewBox="0 0 128 38" fill="none" xmlns="http://www.w3.org/2000/svg">
<g clip-path="url(#clip0)">
<path fill-rule="evenodd" clip-rule="evenodd" d="M2.49537 15.8059V3.5575C2.49537 2.43325 1.57119 2.10765 0.583862 2.00322V0.92812H8.06353V2.00322C7.11933 2.0754 6.32454 2.39332 6.32454 3.47456V15.5878C6.32454 19.6824 8.89067 21.3396 12.3117 21.3396C18.5653 21.3396 18.5653 16.4817 18.5653 12.02V6.76282C18.5653 2.97694 18.2572 2.15526 16.3087 1.98479V0.925049H22.5947V1.98479C21.4518 2.10765 20.6246 2.65442 20.6246 5.07952V14.1195C20.6246 19.237 18.1709 23.1611 11.6478 23.1611C5.92714 23.1611 2.49383 20.9863 2.49383 15.8059" fill="#1C130D"/>
<path fill-rule="evenodd" clip-rule="evenodd" d="M35.0526 20.061V3.92232C35.0526 2.57077 34.2963 2.11616 32.9147 2.00404V0.813759C35.4146 0.852155 37.8944 0.89516 40.4159 0.89516C44.6132 0.89516 47.2502 0.852156 49.8456 0.798401L49.9642 4.31703H48.772C48.1374 2.49859 46.956 2.21906 43.6736 2.21906H38.8987V10.6463H43.0914C44.912 10.6463 45.8978 10.6125 46.2074 9.14421H47.0931V13.4446H46.1689C45.8747 12.2313 45.0506 12.0731 43.0976 12.0731H38.8972V19.1871C38.8972 21.4064 39.7659 21.9686 41.622 22.0193L41.6389 23.0682H32.9147V21.9931C34.3009 21.8518 35.0526 21.4141 35.0526 20.058" fill="#1C130D"/>
<path fill-rule="evenodd" clip-rule="evenodd" d="M126.43 16.527V17.9585L126.415 22.1759C124.196 22.7826 121.25 23.4829 118.037 23.4829C110.844 23.4829 105.792 18.4453 105.792 12.219C105.792 5.08035 111.337 0.583374 118.352 0.583374C119.515 0.583374 120.442 0.709314 122.557 0.979624C123.14 1.07485 126.036 1.59396 126.658 1.74755L126.937 5.8452H125.471C124.45 3.81941 123.04 2.00557 119.166 2.00557C114.29 2.00557 110.162 4.95441 110.162 12.0777C110.162 16.2245 112.494 22.0607 119.602 22.0607C120.699 22.0439 121.781 21.8008 122.778 21.3465C122.778 20.9503 122.863 18.4914 122.863 17.9124C122.863 15.948 122.635 15.1125 121.029 14.853V13.7594H128V14.7854C126.768 14.8975 126.43 15.306 126.43 16.5347" fill="#1C130D"/>
<path fill-rule="evenodd" clip-rule="evenodd" d="M96.1607 16.524C95.4352 17.2919 92.8183 19.5619 91.9573 19.5619C91.6153 19.5619 91.1748 19.3822 91.1748 18.9875C91.1748 18.4546 91.6138 17.4901 91.8602 16.7129L95.711 5.42595C95.9574 4.74249 96.2008 3.83173 96.2008 3.06074C96.2008 2.00407 95.7526 1.07795 94.2723 1.07795C89.6622 1.07795 82.4121 9.19953 79.7936 12.4786H79.6965L82.0177 5.27236C82.3289 4.41228 82.5615 3.44777 82.5615 2.67984C82.5615 1.75833 81.8853 1.07642 80.385 1.07642C76.0815 1.07642 68.9283 9.04287 66.601 12.3695H66.5024L69.0192 5.09267C69.2056 4.51211 69.5552 3.59521 69.5552 2.76739C69.5552 1.8597 69.0685 1.07795 67.9117 1.07795C64.7079 1.07795 61.3285 4.9529 59.4863 7.22136C59.4863 7.22136 59.0242 7.78194 59.4001 8.09065C59.4532 8.14386 59.5163 8.18609 59.5858 8.21491C59.6553 8.24372 59.7299 8.25856 59.8052 8.25856C59.8805 8.25856 59.955 8.24372 60.0245 8.21491C60.094 8.18609 60.1572 8.14386 60.2103 8.09065L61.5226 6.64388C62.3867 5.77305 63.3186 4.95444 64.3152 4.95444C64.9128 4.95444 65.0961 5.38294 65.0961 5.91281C65.0961 6.3321 64.9513 6.82203 64.9128 7.11999L59.8745 22.2881C59.7636 22.8271 60.7987 23.1389 61.2823 23.1389C62.5146 23.1389 63.0721 22.7672 63.2138 22.3863L64.078 19.8461C65.397 16.184 67.4587 12.8322 70.1344 9.99971C71.6747 8.31027 74.5781 4.9529 77.1951 4.9529C77.8744 4.9529 78.1039 5.47509 78.1039 6.15701C78.1039 7.4118 77.4492 9.24254 77.286 9.72326L73.0548 22.3172C72.9547 22.7073 73.3906 23.251 74.7029 23.2602C75.9151 23.2602 76.2524 22.8271 76.3972 22.3971L77.1982 20.4251C78.5536 16.9556 79.9045 14.4567 82.1672 11.6492C83.7306 9.7724 88.1173 4.90683 90.6388 4.90683C90.7899 4.90298 90.9402 4.93041 91.0802 4.98741C91.2201 5.0444 91.3467 5.12971 91.452 5.23796C91.5572 5.3462 91.6388 5.47503 91.6915 5.61629C91.7443 5.75756 91.7671 5.90821 91.7586 6.05872C91.7586 6.53944 91.4798 7.35037 91.2241 8.03536L87.321 19.2348C86.9575 20.1962 86.7203 20.9565 86.7203 21.4986C86.7203 22.7519 87.6028 23.122 88.5162 23.122C91.1733 23.122 93.4452 20.9641 95.3351 18.8908L96.8462 17.2412C96.8462 17.2412 97.2605 16.8112 96.8462 16.4733C96.4903 16.18 96.1576 16.5317 96.1576 16.5317" fill="#B81317"/>
<path d="M93.6254 29.439H60.1718V37.4822H93.6254V29.439Z" fill="#B81317"/>
</g>
<defs>
<clipPath id="clip0">
<rect width="127.416" height="36.8988" fill="white" transform="translate(0.583862 0.583374)"/>
</clipPath>
</defs>
</svg>
